<?xml version="1.0" standalone="no"?>
<!DOCTYPE svg PUBLIC "-//W3C//DTD SVG 20010904//EN"
 "http://www.w3.org/TR/2001/REC-SVG-20010904/DTD/svg10.dtd">
<svg version="1.0" xmlns="http://www.w3.org/2000/svg"
 width="260.000000pt" height="260.000000pt" viewBox="0 0 260.000000 260.000000"
 preserveAspectRatio="xMidYMid meet">
<metadata>
Created by potrace 1.11, written by Peter Selinger 2001-2013
</metadata>
<g transform="translate(0.000000,260.000000) scale(0.100000,-0.100000)"
fill="#000000" stroke="none">
<path d="M2055 2386 c-69 -23 -96 -34 -225 -93 -80 -37 -184 -73 -209 -73 -34
0 -51 -12 -51 -35 0 -55 71 -137 129 -150 17 -4 31 -10 31 -15 0 -5 -23 -57
-51 -117 -226 -482 -431 -1083 -433 -1269 0 -57 5 -81 28 -127 41 -85 98 -151
151 -177 118 -57 333 18 502 175 89 81 147 167 173 254 51 166 22 317 -80 416
l-38 38 58 39 c120 80 255 232 329 370 67 124 86 203 86 353 0 172 -32 292
-98 363 -64 69 -181 87 -302 48z m245 -211 c37 -19 49 -42 55 -102 17 -168
-149 -428 -382 -595 -108 -78 -315 -179 -331 -163 -3 3 0 15 6 28 35 69 181
413 204 482 22 66 51 213 43 225 -5 9 148 82 241 115 80 28 123 31 164 10z
m-372 -1066 c210 -102 -72 -515 -412 -603 -66 -17 -102 -13 -116 14 -24 45 26
239 152 583 8 23 15 27 32 22 45 -14 114 -15 171 -2 73 17 116 13 173 -14z"/>
<path d="M1357 2273 c-34 -71 -71 -148 -81 -173 -11 -25 -37 -85 -59 -135 -48
-111 -250 -616 -266 -667 -10 -31 -17 -38 -39 -39 -15 0 -36 -2 -47 -4 -11 -2
-36 -7 -55 -10 -19 -3 -102 -22 -183 -41 -82 -19 -152 -34 -157 -32 -4 2 0 21
10 43 47 104 261 639 285 709 67 203 69 421 3 434 -20 4 -89 -134 -188 -373
-33 -82 -65 -159 -70 -170 -22 -49 -208 -532 -241 -628 l-14 -39 -66 7 c-53 5
-67 4 -72 -8 -8 -20 26 -90 58 -119 l27 -25 -46 -142 c-87 -266 -103 -431 -50
-533 25 -48 40 -34 75 70 18 53 50 147 71 207 22 61 40 115 41 120 6 25 80
221 86 228 4 4 30 10 57 12 62 6 93 11 229 35 159 28 185 32 185 27 0 -3 -21
-66 -46 -141 -25 -75 -48 -147 -50 -159 -15 -65 -30 -188 -28 -226 4 -85 42
-177 64 -155 7 7 52 130 136 372 9 24 36 96 60 160 25 64 50 132 55 150 l10
34 82 -4 82 -3 -3 35 c-3 39 -44 115 -67 124 -8 3 -15 12 -15 20 0 7 63 164
141 347 133 317 189 462 204 540 14 70 13 191 -2 235 -26 76 -45 62 -116 -83z"/>
</g>
</svg>
